<?xml version="1.0" encoding="utf-8"?>
<!-- Generator: Adobe Illustrator 25.2.1, SVG Export Plug-In . SVG Version: 6.00 Build 0)  -->
<svg version="1.1" id="Layer_1" xmlns="http://www.w3.org/2000/svg" xmlns:xlink="http://www.w3.org/1999/xlink" x="0px" y="0px"
	 viewBox="0 0 290 140" style="enable-background:new 0 0 290 140;" xml:space="preserve">
<style type="text/css">
	.st0{fill:#7F7F7F;}
</style>
<g>
	<path class="st0" d="M67,46c-10.7,0-14.6,8.1-14.6,13.6v24.9c0,4.8,3,13.8,14.3,13.8c11.6,0,14.7-9,14.7-13.7v-1.5h-5.7v1.5
		c0,7.7-7.8,7.9-8.7,7.9c-2.1,0-8.9-0.6-8.9-8V59.7c0-7.7,7.4-8.1,8.9-8.1c1.5,0,8.7,0.4,8.7,8v1.5h5.7v-1.5
		C81.4,54.2,77.6,46,67,46L67,46z"/>
	<path class="st0" d="M135.9,62.4V60c0-5-2.9-13.5-13.9-13.5h-15.3v51.2h5.7V76.2h8.2l9.4,21.4h6.5l-9.9-22.1
		C133.4,73.3,135.9,67.2,135.9,62.4L135.9,62.4z M112.4,70.6V52.1h9.6c2.5,0,8.2,0.8,8.2,8.1v2.2c0,7.8-6.7,8.2-8.1,8.2H112.4
		L112.4,70.6z"/>
	<path class="st0" d="M174.8,46c-11.5,0-14.6,8.9-14.6,13.6v24.9c0,4.8,3,13.8,14.3,13.8c11.7,0,14.8-9,14.8-13.7V59.7
		C189.3,54.2,185.4,46,174.8,46L174.8,46z M183.6,84.5c0,7.9-8,8.1-8.9,8.1c-0.9,0-8.8-0.2-8.8-8.1V59.7c0-7.7,7.4-8.1,8.9-8.1
		c1.5,0,8.8,0.4,8.8,8.1V84.5L183.6,84.5z"/>
	<path class="st0" d="M230.4,46.5h-15.3v51.2h5.7V77.6h9.8c10.8,0,13.7-8.7,13.7-13.8v-3.7C244.3,55,241.4,46.5,230.4,46.5
		L230.4,46.5z M238.6,63.7c0,7.1-5.1,8.2-8.1,8.2h-9.7V52.1h9.5c3.1,0,8.2,1.1,8.2,8.1V63.7L238.6,63.7z"/>
	<polygon class="st0" points="3.2,43.3 14.2,43.3 14.2,15.5 42,15.5 42,4.6 3.2,4.6 3.2,43.3 	"/>
	<polygon class="st0" points="275.8,96.7 275.8,124.5 248,124.5 248,135.4 286.8,135.4 286.8,96.7 275.8,96.7 	"/>
</g>
</svg>
